<svg viewBox="0 0 32 32" xmlns="http://www.w3.org/2000/svg" shape-rendering="crispEdges"><rect x="17" y="0" width="1" height="1" fill="#534c46"/><rect x="18" y="0" width="6" height="1" fill="#261f17"/><rect x="24" y="0" width="2" height="1" fill="#2f261d"/><rect x="26" y="0" width="1" height="1" fill="#372e26"/><rect x="27" y="0" width="1" height="1" fill="#3b322c"/><rect x="28" y="0" width="1" height="1" fill="#7b7672"/><rect x="17" y="1" width="1" height="1" fill="#342d27"/><rect x="18" y="1" width="2" height="1" fill="#706960"/><rect x="20" y="1" width="4" height="1" fill="#6b645a"/><rect x="24" y="1" width="2" height="1" fill="#736a61"/><rect x="26" y="1" width="1" height="1" fill="#82786f"/><rect x="27" y="1" width="1" height="1" fill="#3b322b"/><rect x="28" y="1" width="1" height="1" fill="#373028"/><rect x="17" y="2" width="1" height="1" fill="#49423c"/><rect x="18" y="2" width="1" height="1" fill="#989187"/><rect x="19" y="2" width="1" height="1" fill="#383127"/><rect x="20" y="2" width="2" height="1" fill="#30281e"/><rect x="22" y="2" width="1" height="1" fill="#382f26"/><rect x="23" y="2" width="1" height="1" fill="#352c22"/><rect x="24" y="2" width="1" height="1" fill="#31271d"/><rect x="25" y="2" width="1" height="1" fill="#2e241a"/><rect x="26" y="2" width="1" height="1" fill="#796e65"/><rect x="27" y="2" width="1" height="1" fill="#52483f"/><rect x="28" y="2" width="1" height="1" fill="#352e27"/><rect x="16" y="3" width="1" height="1" fill="#968f89"/><rect x="17" y="3" width="1" height="1" fill="#48413a"/><rect x="18" y="3" width="1" height="1" fill="#89827a"/><rect x="19" y="3" width="1" height="1" fill="#191208"/><rect x="20" y="3" width="2" height="1" fill="#1f160d"/><rect x="22" y="3" width="2" height="1" fill="#241a10"/><rect x="24" y="3" width="2" height="1" fill="#20160c"/><rect x="26" y="3" width="1" height="1" fill="#62554c"/><rect x="27" y="3" width="1" height="1" fill="#4d433a"/><rect x="28" y="3" width="1" height="1" fill="#403931"/><rect x="16" y="4" width="1" height="1" fill="#99938d"/><rect x="17" y="4" width="1" height="1" fill="#483f38"/><rect x="18" y="4" width="1" height="1" fill="#938c82"/><rect x="19" y="4" width="1" height="1" fill="#352c23"/><rect x="20" y="4" width="2" height="1" fill="#282015"/><rect x="22" y="4" width="1" height="1" fill="#2d2319"/><rect x="23" y="4" width="1" height="1" fill="#261c12"/><rect x="24" y="4" width="1" height="1" fill="#22180e"/><rect x="25" y="4" width="1" height="1" fill="#2b1f13"/><rect x="26" y="4" width="1" height="1" fill="#786c60"/><rect x="27" y="4" width="1" height="1" fill="#4e443a"/><rect x="28" y="4" width="1" height="1" fill="#332c26"/><rect x="6" y="5" width="1" height="1" fill="#8c8984"/><rect x="7" y="5" width="5" height="1" fill="#413e39"/><rect x="12" y="5" width="1" height="1" fill="#44413c"/><rect x="13" y="5" width="1" height="1" fill="#6f6c67"/><rect x="16" y="5" width="1" height="1" fill="#8d8881"/><rect x="17" y="5" width="1" height="1" fill="#352e26"/><rect x="18" y="5" width="2" height="1" fill="#6f665d"/><rect x="20" y="5" width="1" height="1" fill="#635a51"/><rect x="21" y="5" width="1" height="1" fill="#6a6056"/><rect x="22" y="5" width="3" height="1" fill="#675d53"/><rect x="25" y="5" width="1" height="1" fill="#6c6054"/><rect x="26" y="5" width="1" height="1" fill="#716559"/><rect x="27" y="5" width="1" height="1" fill="#2e241b"/><rect x="28" y="5" width="1" height="1" fill="#312a24"/><rect x="6" y="6" width="1" height="1" fill="#6e6961"/><rect x="7" y="6" width="1" height="1" fill="#565349"/><rect x="8" y="6" width="1" height="1" fill="#bab7ae"/><rect x="9" y="6" width="1" height="1" fill="#b7b4ab"/><rect x="10" y="6" width="2" height="1" fill="#aeaba2"/><rect x="12" y="6" width="1" height="1" fill="#7e7b76"/><rect x="13" y="6" width="1" height="1" fill="#393631"/><rect x="16" y="6" width="1" height="1" fill="#9c968b"/><rect x="17" y="6" width="1" height="1" fill="#3e372f"/><rect x="18" y="6" width="1" height="1" fill="#31281f"/><rect x="19" y="6" width="1" height="1" fill="#2d251a"/><rect x="20" y="6" width="1" height="1" fill="#31281f"/><rect x="21" y="6" width="2" height="1" fill="#362f24"/><rect x="23" y="6" width="1" height="1" fill="#332a21"/><rect x="24" y="6" width="1" height="1" fill="#382f26"/><rect x="25" y="6" width="2" height="1" fill="#2f271b"/><rect x="27" y="6" width="1" height="1" fill="#282017"/><rect x="28" y="6" width="1" height="1" fill="#6e6a61"/><rect x="6" y="7" width="1" height="1" fill="#726b61"/><rect x="7" y="7" width="1" height="1" fill="#88847a"/><rect x="8" y="7" width="1" height="1" fill="#eeecdf"/><rect x="9" y="7" width="1" height="1" fill="#e6e4d7"/><rect x="10" y="7" width="2" height="1" fill="#f0eee1"/><rect x="12" y="7" width="1" height="1" fill="#c4c1bc"/><rect x="13" y="7" width="1" height="1" fill="#4d4a45"/><rect x="17" y="7" width="1" height="1" fill="#a9a398"/><rect x="19" y="7" width="1" height="1" fill="#b3ac9f"/><rect x="20" y="7" width="1" height="1" fill="#9e9789"/><rect x="21" y="7" width="1" height="1" fill="#322b20"/><rect x="22" y="7" width="1" height="1" fill="#362f24"/><rect x="23" y="7" width="1" height="1" fill="#2c241c"/><rect x="24" y="7" width="1" height="1" fill="#655d52"/><rect x="25" y="7" width="1" height="1" fill="#cfc8bc"/><rect x="4" y="8" width="1" height="1" fill="#867f75"/><rect x="6" y="8" width="1" height="1" fill="#514a40"/><rect x="7" y="8" width="1" height="1" fill="#8f8b81"/><rect x="8" y="8" width="1" height="1" fill="#c9c7bb"/><rect x="9" y="8" width="1" height="1" fill="#989689"/><rect x="10" y="8" width="1" height="1" fill="#b8b6aa"/><rect x="11" y="8" width="1" height="1" fill="#c6c4b9"/><rect x="12" y="8" width="1" height="1" fill="#c1c0b8"/><rect x="13" y="8" width="1" height="1" fill="#403931"/><rect x="14" y="8" width="2" height="1" fill="#99938c"/><rect x="16" y="8" width="1" height="1" fill="#9f978a"/><rect x="17" y="8" width="1" height="1" fill="#a39a8d"/><rect x="18" y="8" width="1" height="1" fill="#9f9589"/><rect x="19" y="8" width="1" height="1" fill="#a3998d"/><rect x="20" y="8" width="1" height="1" fill="#90887b"/><rect x="21" y="8" width="1" height="1" fill="#352d20"/><rect x="22" y="8" width="2" height="1" fill="#3b3327"/><rect x="24" y="8" width="1" height="1" fill="#635b50"/><rect x="25" y="8" width="1" height="1" fill="#a79f94"/><rect x="3" y="9" width="1" height="1" fill="#56534c"/><rect x="4" y="9" width="2" height="1" fill="#251f15"/><rect x="6" y="9" width="1" height="1" fill="#1b140a"/><rect x="7" y="9" width="1" height="1" fill="#837f76"/><rect x="8" y="9" width="1" height="1" fill="#e4e2d6"/><rect x="9" y="9" width="1" height="1" fill="#d5d3c6"/><rect x="10" y="9" width="1" height="1" fill="#e6e4d7"/><rect x="11" y="9" width="1" height="1" fill="#f4f2e6"/><rect x="12" y="9" width="1" height="1" fill="#b9b6ab"/><rect x="13" y="9" width="1" height="1" fill="#2c251c"/><rect x="14" y="9" width="1" height="1" fill="#372e25"/><rect x="15" y="9" width="3" height="1" fill="#3f362a"/><rect x="18" y="9" width="1" height="1" fill="#45392b"/><rect x="19" y="9" width="2" height="1" fill="#403427"/><rect x="21" y="9" width="3" height="1" fill="#382e22"/><rect x="24" y="9" width="1" height="1" fill="#3d3025"/><rect x="25" y="9" width="2" height="1" fill="#392c22"/><rect x="27" y="9" width="1" height="1" fill="#32291f"/><rect x="28" y="9" width="1" height="1" fill="#5e554d"/><rect x="3" y="10" width="1" height="1" fill="#4b443b"/><rect x="4" y="10" width="1" height="1" fill="#453e36"/><rect x="5" y="10" width="1" height="1" fill="#b5aea6"/><rect x="6" y="10" width="1" height="1" fill="#403b35"/><rect x="7" y="10" width="1" height="1" fill="#7b776e"/><rect x="8" y="10" width="1" height="1" fill="#e9e7db"/><rect x="9" y="10" width="2" height="1" fill="#e0ded2"/><rect x="11" y="10" width="1" height="1" fill="#d9d5ca"/><rect x="12" y="10" width="1" height="1" fill="#b0a99f"/><rect x="13" y="10" width="1" height="1" fill="#30291f"/><rect x="14" y="10" width="1" height="1" fill="#887f75"/><rect x="15" y="10" width="1" height="1" fill="#bcb2a3"/><rect x="16" y="10" width="1" height="1" fill="#cabfad"/><rect x="17" y="10" width="1" height="1" fill="#c1b5a5"/><rect x="18" y="10" width="2" height="1" fill="#b5a99b"/><rect x="20" y="10" width="1" height="1" fill="#afa395"/><rect x="21" y="10" width="5" height="1" fill="#a69a8c"/><rect x="26" y="10" width="1" height="1" fill="#b6aba0"/><rect x="27" y="10" width="1" height="1" fill="#695c53"/><rect x="28" y="10" width="1" height="1" fill="#38312b"/><rect x="3" y="11" width="1" height="1" fill="#49433a"/><rect x="4" y="11" width="1" height="1" fill="#5d564e"/><rect x="5" y="11" width="1" height="1" fill="#cbc5b9"/><rect x="6" y="11" width="1" height="1" fill="#57514a"/><rect x="7" y="11" width="1" height="1" fill="#817d74"/><rect x="8" y="11" width="1" height="1" fill="#e1ddd2"/><rect x="9" y="11" width="1" height="1" fill="#ada99d"/><rect x="10" y="11" width="1" height="1" fill="#c9c3b7"/><rect x="11" y="11" width="1" height="1" fill="#d2ccc0"/><rect x="12" y="11" width="1" height="1" fill="#afab9f"/><rect x="13" y="11" width="1" height="1" fill="#2c2219"/><rect x="14" y="11" width="1" height="1" fill="#72685c"/><rect x="15" y="11" width="1" height="1" fill="#a09484"/><rect x="16" y="11" width="1" height="1" fill="#bfb29f"/><rect x="17" y="11" width="1" height="1" fill="#7e7161"/><rect x="18" y="11" width="3" height="1" fill="#56483b"/><rect x="21" y="11" width="2" height="1" fill="#4e4033"/><rect x="23" y="11" width="3" height="1" fill="#544639"/><rect x="26" y="11" width="1" height="1" fill="#a2968b"/><rect x="27" y="11" width="1" height="1" fill="#796d63"/><rect x="28" y="11" width="1" height="1" fill="#3b342d"/><rect x="3" y="12" width="1" height="1" fill="#4d473b"/><rect x="4" y="12" width="1" height="1" fill="#51483f"/><rect x="5" y="12" width="1" height="1" fill="#898176"/><rect x="6" y="12" width="1" height="1" fill="#1c140c"/><rect x="7" y="12" width="1" height="1" fill="#746d65"/><rect x="8" y="12" width="1" height="1" fill="#ddd6cb"/><rect x="9" y="12" width="1" height="1" fill="#cbc5b7"/><rect x="10" y="12" width="1" height="1" fill="#e5ddd0"/><rect x="11" y="12" width="1" height="1" fill="#dfd7cb"/><rect x="12" y="12" width="1" height="1" fill="#9f958a"/><rect x="13" y="12" width="1" height="1" fill="#271d13"/><rect x="14" y="12" width="1" height="1" fill="#675d4e"/><rect x="15" y="12" width="1" height="1" fill="#a79a89"/><rect x="16" y="12" width="1" height="1" fill="#b8ac97"/><rect x="17" y="12" width="1" height="1" fill="#4f4231"/><rect x="18" y="12" width="3" height="1" fill="#2b1d0f"/><rect x="21" y="12" width="1" height="1" fill="#2e2112"/><rect x="22" y="12" width="2" height="1" fill="#2b1d10"/><rect x="24" y="12" width="1" height="1" fill="#26180b"/><rect x="25" y="12" width="1" height="1" fill="#291b0e"/><rect x="26" y="12" width="1" height="1" fill="#8c7e71"/><rect x="27" y="12" width="1" height="1" fill="#6e6256"/><rect x="28" y="12" width="1" height="1" fill="#3d362e"/><rect x="3" y="13" width="1" height="1" fill="#4a4338"/><rect x="4" y="13" width="1" height="1" fill="#584f46"/><rect x="5" y="13" width="1" height="1" fill="#948b7f"/><rect x="6" y="13" width="1" height="1" fill="#1f150f"/><rect x="7" y="13" width="1" height="1" fill="#71685f"/><rect x="8" y="13" width="1" height="1" fill="#e0d8cb"/><rect x="9" y="13" width="2" height="1" fill="#d0c8bb"/><rect x="11" y="13" width="1" height="1" fill="#d4cdbe"/><rect x="12" y="13" width="1" height="1" fill="#9e9489"/><rect x="13" y="13" width="1" height="1" fill="#231910"/><rect x="14" y="13" width="1" height="1" fill="#685c4c"/><rect x="15" y="13" width="1" height="1" fill="#978a77"/><rect x="16" y="13" width="1" height="1" fill="#ada18b"/><rect x="17" y="13" width="1" height="1" fill="#433625"/><rect x="18" y="13" width="8" height="1" fill="#291c0c"/><rect x="26" y="13" width="1" height="1" fill="#7c6f5f"/><rect x="27" y="13" width="1" height="1" fill="#786a5f"/><rect x="28" y="13" width="1" height="1" fill="#3a332b"/><rect x="3" y="14" width="1" height="1" fill="#4c453b"/><rect x="4" y="14" width="1" height="1" fill="#574e45"/><rect x="5" y="14" width="1" height="1" fill="#988d81"/><rect x="6" y="14" width="1" height="1" fill="#24190f"/><rect x="7" y="14" width="1" height="1" fill="#322619"/><rect x="8" y="14" width="2" height="1" fill="#493f30"/><rect x="10" y="14" width="1" height="1" fill="#453c2d"/><rect x="11" y="14" width="1" height="1" fill="#3b3122"/><rect x="12" y="14" width="1" height="1" fill="#32281a"/><rect x="13" y="14" width="1" height="1" fill="#1d1308"/><rect x="14" y="14" width="1" height="1" fill="#564a3a"/><rect x="15" y="14" width="1" height="1" fill="#9d907d"/><rect x="16" y="14" width="1" height="1" fill="#b4a891"/><rect x="17" y="14" width="1" height="1" fill="#978b76"/><rect x="18" y="14" width="1" height="1" fill="#8e8170"/><rect x="19" y="14" width="1" height="1" fill="#968978"/><rect x="20" y="14" width="1" height="1" fill="#938675"/><rect x="21" y="14" width="1" height="1" fill="#968978"/><rect x="22" y="14" width="2" height="1" fill="#8d806f"/><rect x="24" y="14" width="1" height="1" fill="#897b6d"/><rect x="25" y="14" width="1" height="1" fill="#796c5c"/><rect x="26" y="14" width="1" height="1" fill="#a39685"/><rect x="27" y="14" width="1" height="1" fill="#71655a"/><rect x="28" y="14" width="1" height="1" fill="#3f3830"/><rect x="2" y="15" width="1" height="1" fill="#817b72"/><rect x="3" y="15" width="1" height="1" fill="#756c63"/><rect x="4" y="15" width="1" height="1" fill="#7d736a"/><rect x="5" y="15" width="1" height="1" fill="#a59a8e"/><rect x="6" y="15" width="1" height="1" fill="#6c6053"/><rect x="7" y="15" width="3" height="1" fill="#695d4f"/><rect x="10" y="15" width="2" height="1" fill="#655c4b"/><rect x="12" y="15" width="2" height="1" fill="#61574b"/><rect x="14" y="15" width="1" height="1" fill="#817569"/><rect x="15" y="15" width="1" height="1" fill="#a89c89"/><rect x="16" y="15" width="2" height="1" fill="#b0a48e"/><rect x="18" y="15" width="1" height="1" fill="#b9ac9a"/><rect x="19" y="15" width="1" height="1" fill="#b4a796"/><rect x="20" y="15" width="2" height="1" fill="#beb1a0"/><rect x="22" y="15" width="3" height="1" fill="#b2a594"/><rect x="25" y="15" width="1" height="1" fill="#b9ad9d"/><rect x="26" y="15" width="1" height="1" fill="#b0a494"/><rect x="27" y="15" width="1" height="1" fill="#766a5e"/><rect x="28" y="15" width="1" height="1" fill="#534c44"/><rect x="29" y="15" width="1" height="1" fill="#979088"/><rect x="2" y="16" width="1" height="1" fill="#3a332b"/><rect x="3" y="16" width="1" height="1" fill="#9a9188"/><rect x="4" y="16" width="1" height="1" fill="#bcb0a2"/><rect x="5" y="16" width="2" height="1" fill="#b7ab9c"/><rect x="7" y="16" width="1" height="1" fill="#bcb1a0"/><rect x="8" y="16" width="2" height="1" fill="#b7ab9a"/><rect x="10" y="16" width="1" height="1" fill="#b2a794"/><rect x="11" y="16" width="3" height="1" fill="#b5aa99"/><rect x="14" y="16" width="2" height="1" fill="#b9ae9c"/><rect x="16" y="16" width="1" height="1" fill="#c5b9a3"/><rect x="17" y="16" width="1" height="1" fill="#b6ab99"/><rect x="18" y="16" width="1" height="1" fill="#beb3a2"/><rect x="19" y="16" width="1" height="1" fill="#594d3f"/><rect x="20" y="16" width="1" height="1" fill="#807563"/><rect x="21" y="16" width="1" height="1" fill="#ccc0b0"/><rect x="22" y="16" width="1" height="1" fill="#55493a"/><rect x="23" y="16" width="1" height="1" fill="#7b6f60"/><rect x="24" y="16" width="1" height="1" fill="#b4a89a"/><rect x="25" y="16" width="1" height="1" fill="#645848"/><rect x="26" y="16" width="1" height="1" fill="#ada192"/><rect x="27" y="16" width="1" height="1" fill="#b4a89c"/><rect x="28" y="16" width="1" height="1" fill="#817971"/><rect x="29" y="16" width="1" height="1" fill="#403933"/><rect x="30" y="16" width="1" height="1" fill="#aba49c"/><rect x="2" y="17" width="1" height="1" fill="#2d251b"/><rect x="3" y="17" width="1" height="1" fill="#a69a8c"/><rect x="4" y="17" width="1" height="1" fill="#bfb4a2"/><rect x="5" y="17" width="1" height="1" fill="#b1a590"/><rect x="6" y="17" width="1" height="1" fill="#b7ac96"/><rect x="7" y="17" width="1" height="1" fill="#b2a691"/><rect x="8" y="17" width="1" height="1" fill="#b7ab96"/><rect x="9" y="17" width="2" height="1" fill="#b1a491"/><rect x="11" y="17" width="1" height="1" fill="#aa9d88"/><rect x="12" y="17" width="2" height="1" fill="#b6aa95"/><rect x="14" y="17" width="1" height="1" fill="#aa9e89"/><rect x="15" y="17" width="1" height="1" fill="#b9ad97"/><rect x="16" y="17" width="1" height="1" fill="#b1a491"/><rect x="17" y="17" width="1" height="1" fill="#a69a8a"/><rect x="18" y="17" width="1" height="1" fill="#ccbfb1"/><rect x="19" y="17" width="1" height="1" fill="#84786d"/><rect x="20" y="17" width="1" height="1" fill="#9c9084"/><rect x="21" y="17" width="1" height="1" fill="#c1b5a7"/><rect x="22" y="17" width="1" height="1" fill="#675a4e"/><rect x="23" y="17" width="1" height="1" fill="#887c6e"/><rect x="24" y="17" width="1" height="1" fill="#b5a99c"/><rect x="25" y="17" width="1" height="1" fill="#594c45"/><rect x="26" y="17" width="1" height="1" fill="#a19489"/><rect x="27" y="17" width="1" height="1" fill="#aa9e92"/><rect x="28" y="17" width="1" height="1" fill="#81786f"/><rect x="29" y="17" width="1" height="1" fill="#2e2620"/><rect x="30" y="17" width="1" height="1" fill="#a49d97"/><rect x="2" y="18" width="1" height="1" fill="#2e2419"/><rect x="3" y="18" width="1" height="1" fill="#a09485"/><rect x="4" y="18" width="1" height="1" fill="#c0b3a0"/><rect x="5" y="18" width="2" height="1" fill="#c9bda7"/><rect x="7" y="18" width="1" height="1" fill="#aa9f8b"/><rect x="8" y="18" width="1" height="1" fill="#c0b5a1"/><rect x="9" y="18" width="1" height="1" fill="#b9ae9a"/><rect x="10" y="18" width="1" height="1" fill="#d7ccb8"/><rect x="11" y="18" width="1" height="1" fill="#b2a793"/><rect x="12" y="18" width="1" height="1" fill="#c4b9a5"/><rect x="13" y="18" width="1" height="1" fill="#b6ab95"/><rect x="14" y="18" width="1" height="1" fill="#b0a591"/><rect x="15" y="18" width="1" height="1" fill="#d4c9b6"/><rect x="16" y="18" width="1" height="1" fill="#a99e8a"/><rect x="17" y="18" width="1" height="1" fill="#a09583"/><rect x="18" y="18" width="1" height="1" fill="#c7baac"/><rect x="19" y="18" width="1" height="1" fill="#9d9084"/><rect x="20" y="18" width="1" height="1" fill="#a19588"/><rect x="21" y="18" width="1" height="1" fill="#c9bdad"/><rect x="22" y="18" width="1" height="1" fill="#a29689"/><rect x="23" y="18" width="1" height="1" fill="#a99d8f"/><rect x="24" y="18" width="1" height="1" fill="#cbbfb3"/><rect x="25" y="18" width="1" height="1" fill="#ada095"/><rect x="26" y="18" width="1" height="1" fill="#bdb1a5"/><rect x="27" y="18" width="1" height="1" fill="#a79b8f"/><rect x="28" y="18" width="1" height="1" fill="#7e7468"/><rect x="29" y="18" width="1" height="1" fill="#2b211f"/><rect x="30" y="18" width="1" height="1" fill="#a49d97"/><rect x="2" y="19" width="1" height="1" fill="#2f261d"/><rect x="3" y="19" width="1" height="1" fill="#9e9284"/><rect x="4" y="19" width="1" height="1" fill="#b0a393"/><rect x="5" y="19" width="1" height="1" fill="#aa9b8a"/><rect x="6" y="19" width="1" height="1" fill="#bcaf9c"/><rect x="7" y="19" width="3" height="1" fill="#b4a794"/><rect x="10" y="19" width="1" height="1" fill="#b1a491"/><rect x="11" y="19" width="1" height="1" fill="#aea18e"/><rect x="12" y="19" width="2" height="1" fill="#b6a996"/><rect x="14" y="19" width="1" height="1" fill="#aa9d8a"/><rect x="15" y="19" width="1" height="1" fill="#b2a592"/><rect x="16" y="19" width="2" height="1" fill="#aea18e"/><rect x="18" y="19" width="1" height="1" fill="#c2b5a3"/><rect x="19" y="19" width="1" height="1" fill="#534738"/><rect x="20" y="19" width="1" height="1" fill="#6b5f4f"/><rect x="21" y="19" width="1" height="1" fill="#c9bdad"/><rect x="22" y="19" width="1" height="1" fill="#45392b"/><rect x="23" y="19" width="1" height="1" fill="#5c5141"/><rect x="24" y="19" width="1" height="1" fill="#b7ab9b"/><rect x="25" y="19" width="1" height="1" fill="#3c3121"/><rect x="26" y="19" width="1" height="1" fill="#887c6c"/><rect x="27" y="19" width="1" height="1" fill="#b2a99a"/><rect x="28" y="19" width="1" height="1" fill="#887e72"/><rect x="29" y="19" width="1" height="1" fill="#322723"/><rect x="30" y="19" width="1" height="1" fill="#a29b93"/><rect x="2" y="20" width="1" height="1" fill="#39302b"/><rect x="3" y="20" width="1" height="1" fill="#b8aca0"/><rect x="4" y="20" width="1" height="1" fill="#d0c3b3"/><rect x="5" y="20" width="1" height="1" fill="#b5a595"/><rect x="6" y="20" width="1" height="1" fill="#c8bba8"/><rect x="7" y="20" width="1" height="1" fill="#dccfbc"/><rect x="8" y="20" width="1" height="1" fill="#bfb2a0"/><rect x="9" y="20" width="1" height="1" fill="#b8ab9a"/><rect x="10" y="20" width="1" height="1" fill="#e2d5c4"/><rect x="11" y="20" width="1" height="1" fill="#c2b5a2"/><rect x="12" y="20" width="1" height="1" fill="#c9bcaa"/><rect x="13" y="20" width="1" height="1" fill="#d6c9b7"/><rect x="14" y="20" width="1" height="1" fill="#b1a491"/><rect x="15" y="20" width="1" height="1" fill="#dbcebc"/><rect x="16" y="20" width="1" height="1" fill="#c7baa8"/><rect x="17" y="20" width="1" height="1" fill="#a79a89"/><rect x="18" y="20" width="1" height="1" fill="#bfb2a1"/><rect x="19" y="20" width="1" height="1" fill="#a49987"/><rect x="20" y="20" width="1" height="1" fill="#b4a796"/><rect x="21" y="20" width="1" height="1" fill="#cec1b0"/><rect x="22" y="20" width="1" height="1" fill="#a19584"/><rect x="23" y="20" width="1" height="1" fill="#a69b89"/><rect x="24" y="20" width="1" height="1" fill="#c8beac"/><rect x="25" y="20" width="1" height="1" fill="#928775"/><rect x="26" y="20" width="1" height="1" fill="#b7ac9a"/><rect x="27" y="20" width="1" height="1" fill="#ada291"/><rect x="28" y="20" width="1" height="1" fill="#867d6c"/><rect x="29" y="20" width="1" height="1" fill="#3a3027"/><rect x="30" y="20" width="1" height="1" fill="#9f9890"/><rect x="0" y="21" width="1" height="1" fill="#837c76"/><rect x="1" y="21" width="1" height="1" fill="#797069"/><rect x="2" y="21" width="1" height="1" fill="#6d635a"/><rect x="3" y="21" width="1" height="1" fill="#9c8f86"/><rect x="4" y="21" width="1" height="1" fill="#b1a396"/><rect x="5" y="21" width="2" height="1" fill="#ac9c8e"/><rect x="7" y="21" width="1" height="1" fill="#b3a695"/><rect x="8" y="21" width="2" height="1" fill="#ada08f"/><rect x="10" y="21" width="1" height="1" fill="#baad9c"/><rect x="11" y="21" width="2" height="1" fill="#b3a695"/><rect x="13" y="21" width="2" height="1" fill="#afa291"/><rect x="15" y="21" width="1" height="1" fill="#b6a998"/><rect x="16" y="21" width="1" height="1" fill="#ada090"/><rect x="17" y="21" width="2" height="1" fill="#a99a8a"/><rect x="19" y="21" width="1" height="1" fill="#6b5e4e"/><rect x="20" y="21" width="1" height="1" fill="#726555"/><rect x="21" y="21" width="1" height="1" fill="#8e8171"/><rect x="22" y="21" width="2" height="1" fill="#736655"/><rect x="24" y="21" width="1" height="1" fill="#887c6c"/><rect x="25" y="21" width="2" height="1" fill="#7b6f5f"/><rect x="27" y="21" width="2" height="1" fill="#877b6b"/><rect x="29" y="21" width="1" height="1" fill="#493f34"/><rect x="30" y="21" width="1" height="1" fill="#675d56"/><rect x="31" y="21" width="1" height="1" fill="#938b88"/><rect x="0" y="22" width="1" height="1" fill="#5a534d"/><rect x="1" y="22" width="1" height="1" fill="#1f160f"/><rect x="2" y="22" width="1" height="1" fill="#786d64"/><rect x="3" y="22" width="3" height="1" fill="#83776b"/><rect x="6" y="22" width="1" height="1" fill="#857566"/><rect x="7" y="22" width="1" height="1" fill="#8b7e6e"/><rect x="8" y="22" width="6" height="1" fill="#918473"/><rect x="14" y="22" width="3" height="1" fill="#8d806f"/><rect x="17" y="22" width="3" height="1" fill="#887869"/><rect x="20" y="22" width="6" height="1" fill="#827265"/><rect x="26" y="22" width="2" height="1" fill="#7c6f61"/><rect x="28" y="22" width="1" height="1" fill="#736757"/><rect x="29" y="22" width="1" height="1" fill="#665a4c"/><rect x="30" y="22" width="1" height="1" fill="#332a20"/><rect x="31" y="22" width="1" height="1" fill="#5a524f"/><rect x="0" y="23" width="1" height="1" fill="#665f57"/><rect x="1" y="23" width="1" height="1" fill="#1a1108"/><rect x="2" y="23" width="6" height="1" fill="#2f231a"/><rect x="8" y="23" width="1" height="1" fill="#38271c"/><rect x="9" y="23" width="3" height="1" fill="#3b2b1e"/><rect x="12" y="23" width="2" height="1" fill="#3f3020"/><rect x="14" y="23" width="6" height="1" fill="#3c2c1d"/><rect x="20" y="23" width="2" height="1" fill="#37291e"/><rect x="22" y="23" width="5" height="1" fill="#3a2c21"/><rect x="27" y="23" width="1" height="1" fill="#3f3124"/><rect x="28" y="23" width="1" height="1" fill="#3a2e21"/><rect x="29" y="23" width="1" height="1" fill="#3f3326"/><rect x="30" y="23" width="1" height="1" fill="#251b10"/><rect x="31" y="23" width="1" height="1" fill="#5c524f"/><rect x="0" y="24" width="1" height="1" fill="#686258"/><rect x="1" y="24" width="1" height="1" fill="#1d150a"/><rect x="2" y="24" width="1" height="1" fill="#8e847a"/><rect x="3" y="24" width="2" height="1" fill="#988b7d"/><rect x="5" y="24" width="1" height="1" fill="#a19183"/><rect x="6" y="24" width="1" height="1" fill="#a79787"/><rect x="7" y="24" width="2" height="1" fill="#a49583"/><rect x="9" y="24" width="3" height="1" fill="#a99989"/><rect x="12" y="24" width="1" height="1" fill="#b1a18f"/><rect x="13" y="24" width="1" height="1" fill="#ad9e8b"/><rect x="14" y="24" width="3" height="1" fill="#aa9b88"/><rect x="17" y="24" width="2" height="1" fill="#b19f91"/><rect x="19" y="24" width="1" height="1" fill="#b8a899"/><rect x="20" y="24" width="1" height="1" fill="#b5a596"/><rect x="21" y="24" width="1" height="1" fill="#b0a091"/><rect x="22" y="24" width="3" height="1" fill="#ac9c8d"/><rect x="25" y="24" width="1" height="1" fill="#b6a999"/><rect x="26" y="24" width="1" height="1" fill="#aea191"/><rect x="27" y="24" width="2" height="1" fill="#b2a594"/><rect x="29" y="24" width="1" height="1" fill="#897d6d"/><rect x="30" y="24" width="1" height="1" fill="#2d2319"/><rect x="31" y="24" width="1" height="1" fill="#5d5351"/><rect x="0" y="25" width="1" height="1" fill="#5a5448"/><rect x="1" y="25" width="1" height="1" fill="#292114"/><rect x="2" y="25" width="1" height="1" fill="#b2a899"/><rect x="3" y="25" width="1" height="1" fill="#a59887"/><rect x="4" y="25" width="2" height="1" fill="#a39383"/><rect x="6" y="25" width="6" height="1" fill="#b1a08e"/><rect x="12" y="25" width="3" height="1" fill="#b5a493"/><rect x="15" y="25" width="6" height="1" fill="#b1a08e"/><rect x="21" y="25" width="2" height="1" fill="#aa9b88"/><rect x="23" y="25" width="3" height="1" fill="#a79885"/><rect x="26" y="25" width="1" height="1" fill="#a49582"/><rect x="27" y="25" width="1" height="1" fill="#a79a87"/><rect x="28" y="25" width="1" height="1" fill="#a2967f"/><rect x="29" y="25" width="1" height="1" fill="#948777"/><rect x="30" y="25" width="1" height="1" fill="#362921"/><rect x="31" y="25" width="1" height="1" fill="#5b504e"/><rect x="0" y="26" width="1" height="1" fill="#4a4438"/><rect x="1" y="26" width="1" height="1" fill="#2c2417"/><rect x="2" y="26" width="1" height="1" fill="#b1a696"/><rect x="3" y="26" width="2" height="1" fill="#827562"/><rect x="5" y="26" width="1" height="1" fill="#887765"/><rect x="6" y="26" width="6" height="1" fill="#958470"/><rect x="12" y="26" width="1" height="1" fill="#9c8b77"/><rect x="13" y="26" width="2" height="1" fill="#998874"/><rect x="15" y="26" width="1" height="1" fill="#94836f"/><rect x="16" y="26" width="1" height="1" fill="#907f6b"/><rect x="17" y="26" width="4" height="1" fill="#9e8d78"/><rect x="21" y="26" width="3" height="1" fill="#9b8a74"/><rect x="24" y="26" width="3" height="1" fill="#94856d"/><rect x="27" y="26" width="1" height="1" fill="#988972"/><rect x="28" y="26" width="2" height="1" fill="#8d816b"/><rect x="30" y="26" width="1" height="1" fill="#3a2d24"/><rect x="31" y="26" width="1" height="1" fill="#5a4f4b"/><rect x="0" y="27" width="1" height="1" fill="#50493d"/><rect x="1" y="27" width="1" height="1" fill="#271e11"/><rect x="2" y="27" width="1" height="1" fill="#b6ab99"/><rect x="3" y="27" width="1" height="1" fill="#938773"/><rect x="4" y="27" width="1" height="1" fill="#8d7e6b"/><rect x="5" y="27" width="1" height="1" fill="#92816d"/><rect x="6" y="27" width="7" height="1" fill="#988770"/><rect x="13" y="27" width="2" height="1" fill="#9c8c75"/><rect x="15" y="27" width="1" height="1" fill="#83735e"/><rect x="16" y="27" width="1" height="1" fill="#62523b"/><rect x="17" y="27" width="1" height="1" fill="#92826b"/><rect x="18" y="27" width="1" height="1" fill="#a19076"/><rect x="19" y="27" width="2" height="1" fill="#a6957b"/><rect x="21" y="27" width="4" height="1" fill="#a08f75"/><rect x="25" y="27" width="3" height="1" fill="#9d8c72"/><rect x="28" y="27" width="1" height="1" fill="#9a8e76"/><rect x="29" y="27" width="1" height="1" fill="#8c7e6b"/><rect x="30" y="27" width="1" height="1" fill="#3c3025"/><rect x="31" y="27" width="1" height="1" fill="#5b5348"/><rect x="0" y="28" width="1" height="1" fill="#665e53"/><rect x="1" y="28" width="1" height="1" fill="#282015"/><rect x="2" y="28" width="1" height="1" fill="#b6aa9a"/><rect x="3" y="28" width="4" height="1" fill="#978976"/><rect x="7" y="28" width="2" height="1" fill="#97866e"/><rect x="9" y="28" width="9" height="1" fill="#9a8971"/><rect x="18" y="28" width="1" height="1" fill="#9f8e76"/><rect x="19" y="28" width="4" height="1" fill="#a5947c"/><rect x="23" y="28" width="2" height="1" fill="#a29177"/><rect x="25" y="28" width="1" height="1" fill="#a5937b"/><rect x="26" y="28" width="1" height="1" fill="#9e8c74"/><rect x="27" y="28" width="1" height="1" fill="#a19078"/><rect x="28" y="28" width="1" height="1" fill="#958671"/><rect x="29" y="28" width="1" height="1" fill="#91826f"/><rect x="30" y="28" width="1" height="1" fill="#3f3327"/><rect x="31" y="28" width="1" height="1" fill="#5a5247"/><rect x="0" y="29" width="1" height="1" fill="#635a51"/><rect x="1" y="29" width="1" height="1" fill="#282015"/><rect x="2" y="29" width="1" height="1" fill="#afa498"/><rect x="3" y="29" width="1" height="1" fill="#887b6b"/><rect x="4" y="29" width="1" height="1" fill="#807362"/><rect x="5" y="29" width="1" height="1" fill="#7d6e5d"/><rect x="6" y="29" width="1" height="1" fill="#857665"/><rect x="7" y="29" width="2" height="1" fill="#8a7b68"/><rect x="9" y="29" width="6" height="1" fill="#877664"/><rect x="15" y="29" width="4" height="1" fill="#827263"/><rect x="19" y="29" width="3" height="1" fill="#877664"/><rect x="22" y="29" width="4" height="1" fill="#8b7a68"/><rect x="26" y="29" width="4" height="1" fill="#877865"/><rect x="30" y="29" width="1" height="1" fill="#3e3426"/><rect x="31" y="29" width="1" height="1" fill="#60574e"/><rect x="0" y="30" width="1" height="1" fill="#605a50"/><rect x="1" y="30" width="1" height="1" fill="#241c13"/><rect x="2" y="30" width="1" height="1" fill="#393026"/><rect x="3" y="30" width="1" height="1" fill="#362c22"/><rect x="4" y="30" width="1" height="1" fill="#31271b"/><rect x="5" y="30" width="1" height="1" fill="#352b1e"/><rect x="6" y="30" width="1" height="1" fill="#3b3223"/><rect x="7" y="30" width="3" height="1" fill="#372b1f"/><rect x="10" y="30" width="11" height="1" fill="#31241b"/><rect x="21" y="30" width="1" height="1" fill="#34271e"/><rect x="22" y="30" width="1" height="1" fill="#382b22"/><rect x="23" y="30" width="2" height="1" fill="#34271e"/><rect x="25" y="30" width="4" height="1" fill="#372a21"/><rect x="29" y="30" width="1" height="1" fill="#3e3227"/><rect x="30" y="30" width="1" height="1" fill="#261d12"/><rect x="31" y="30" width="1" height="1" fill="#5d564c"/><rect x="0" y="31" width="1" height="1" fill="#928e85"/><rect x="1" y="31" width="1" height="1" fill="#6e675f"/><rect x="2" y="31" width="1" height="1" fill="#686159"/><rect x="3" y="31" width="1" height="1" fill="#635b55"/><rect x="4" y="31" width="3" height="1" fill="#675f59"/><rect x="7" y="31" width="2" height="1" fill="#6e645b"/><rect x="9" y="31" width="3" height="1" fill="#685f57"/><rect x="12" y="31" width="8" height="1" fill="#655b54"/><rect x="20" y="31" width="2" height="1" fill="#675c5b"/><rect x="22" y="31" width="1" height="1" fill="#6d635d"/><rect x="23" y="31" width="2" height="1" fill="#665c53"/><rect x="25" y="31" width="1" height="1" fill="#71685f"/><rect x="26" y="31" width="2" height="1" fill="#6d6058"/><rect x="28" y="31" width="2" height="1" fill="#665c54"/><rect x="30" y="31" width="1" height="1" fill="#686057"/><rect x="31" y="31" width="1" height="1" fill="#969189"/></svg>